<svg viewBox="0 0 1200 320" width="1200" height="320" xmlns="http://www.w3.org/2000/svg" role="img" aria-label="A calm minimalist landscape">
  <defs>
    <linearGradient id="sky" x1="0" y1="0" x2="0" y2="1">
      <stop offset="0%"  stop-color="#25323B"/>
      <stop offset="42%" stop-color="#3A4F58"/>
      <stop offset="72%" stop-color="#587068"/>
      <stop offset="100%" stop-color="#9C8F73"/>
    </linearGradient>
    <radialGradient id="glow" cx="50%" cy="50%" r="50%">
      <stop offset="0%"  stop-color="#C9A87C" stop-opacity="0.55"/>
      <stop offset="45%" stop-color="#C9A87C" stop-opacity="0.20"/>
      <stop offset="100%" stop-color="#C9A87C" stop-opacity="0"/>
    </radialGradient>
    <radialGradient id="sun" cx="50%" cy="50%" r="50%">
      <stop offset="0%"  stop-color="#EAD9B8"/>
      <stop offset="70%" stop-color="#D8C4A2"/>
      <stop offset="100%" stop-color="#C9B492"/>
    </radialGradient>
    <linearGradient id="mist" x1="0" y1="0" x2="0" y2="1">
      <stop offset="0%" stop-color="#C8D2C5" stop-opacity="0.10"/>
      <stop offset="100%" stop-color="#C8D2C5" stop-opacity="0"/>
    </linearGradient>
    <clipPath id="frame"><rect x="0" y="0" width="1200" height="320" rx="14"/></clipPath>
  </defs>

  <g clip-path="url(#frame)">
    <!-- sky -->
    <rect x="0" y="0" width="1200" height="320" fill="url(#sky)"/>

    <!-- sun + soft glow, gently breathing -->
    <g transform="translate(905 120)">
      <g>
        <animateTransform attributeName="transform" type="scale"
          values="1;1.05;1" dur="9s" repeatCount="indefinite"/>
        <circle cx="0" cy="0" r="150" fill="url(#glow)">
          <animate attributeName="opacity" values="0.85;1;0.85" dur="9s" repeatCount="indefinite"/>
        </circle>
        <circle cx="0" cy="0" r="46" fill="url(#sun)"/>
      </g>
    </g>

    <!-- soft mist band -->
    <rect x="0" y="150" width="1200" height="90" fill="url(#mist)">
      <animate attributeName="x" values="-40;0;-40" dur="60s" repeatCount="indefinite"/>
    </rect>

    <!-- parallax hills -->
  <g>
    <animateTransform attributeName="transform" type="translate"
      from="0 0" to="-1200 0" dur="95s" repeatCount="indefinite" additive="sum"/>
    <path d="M 0 188.0 L 8 188.42 L 16 188.84 L 24 189.25 L 32 189.67 L 40 190.08 L 48 190.49 L 56 190.89 L 64 191.29 L 72 191.68 L 80 192.07 L 88 192.45 L 96 192.82 L 104 193.18 L 112 193.53 L 120 193.88 L 128 194.21 L 136 194.53 L 144 194.85 L 152 195.14 L 160 195.43 L 168 195.71 L 176 195.97 L 184 196.21 L 192 196.44 L 200 196.66 L 208 196.86 L 216 197.05 L 224 197.22 L 232 197.37 L 240 197.51 L 248 197.63 L 256 197.74 L 264 197.82 L 272 197.89 L 280 197.95 L 288 197.98 L 296 198.0 L 304 198.0 L 312 197.98 L 320 197.95 L 328 197.89 L 336 197.82 L 344 197.74 L 352 197.63 L 360 197.51 L 368 197.37 L 376 197.22 L 384 197.05 L 392 196.86 L 400 196.66 L 408 196.44 L 416 196.21 L 424 195.97 L 432 195.71 L 440 195.43 L 448 195.14 L 456 194.85 L 464 194.53 L 472 194.21 L 480 193.88 L 488 193.53 L 496 193.18 L 504 192.82 L 512 192.45 L 520 192.07 L 528 191.68 L 536 191.29 L 544 190.89 L 552 190.49 L 560 190.08 L 568 189.67 L 576 189.25 L 584 188.84 L 592 188.42 L 600 188.0 L 608 187.58 L 616 187.16 L 624 186.75 L 632 186.33 L 640 185.92 L 648 185.51 L 656 185.11 L 664 184.71 L 672 184.32 L 680 183.93 L 688 183.55 L 696 183.18 L 704 182.82 L 712 182.47 L 720 182.12 L 728 181.79 L 736 181.47 L 744 181.15 L 752 180.86 L 760 180.57 L 768 180.29 L 776 180.03 L 784 179.79 L 792 179.56 L 800 179.34 L 808 179.14 L 816 178.95 L 824 178.78 L 832 178.63 L 840 178.49 L 848 178.37 L 856 178.26 L 864 178.18 L 872 178.11 L 880 178.05 L 888 178.02 L 896 178.0 L 904 178.0 L 912 178.02 L 920 178.05 L 928 178.11 L 936 178.18 L 944 178.26 L 952 178.37 L 960 178.49 L 968 178.63 L 976 178.78 L 984 178.95 L 992 179.14 L 1000 179.34 L 1008 179.56 L 1016 179.79 L 1024 180.03 L 1032 180.29 L 1040 180.57 L 1048 180.86 L 1056 181.15 L 1064 181.47 L 1072 181.79 L 1080 182.12 L 1088 182.47 L 1096 182.82 L 1104 183.18 L 1112 183.55 L 1120 183.93 L 1128 184.32 L 1136 184.71 L 1144 185.11 L 1152 185.51 L 1160 185.92 L 1168 186.33 L 1176 186.75 L 1184 187.16 L 1192 187.58 L 1200 188.0 L 1208 188.42 L 1216 188.84 L 1224 189.25 L 1232 189.67 L 1240 190.08 L 1248 190.49 L 1256 190.89 L 1264 191.29 L 1272 191.68 L 1280 192.07 L 1288 192.45 L 1296 192.82 L 1304 193.18 L 1312 193.53 L 1320 193.88 L 1328 194.21 L 1336 194.53 L 1344 194.85 L 1352 195.14 L 1360 195.43 L 1368 195.71 L 1376 195.97 L 1384 196.21 L 1392 196.44 L 1400 196.66 L 1408 196.86 L 1416 197.05 L 1424 197.22 L 1432 197.37 L 1440 197.51 L 1448 197.63 L 1456 197.74 L 1464 197.82 L 1472 197.89 L 1480 197.95 L 1488 197.98 L 1496 198.0 L 1504 198.0 L 1512 197.98 L 1520 197.95 L 1528 197.89 L 1536 197.82 L 1544 197.74 L 1552 197.63 L 1560 197.51 L 1568 197.37 L 1576 197.22 L 1584 197.05 L 1592 196.86 L 1600 196.66 L 1608 196.44 L 1616 196.21 L 1624 195.97 L 1632 195.71 L 1640 195.43 L 1648 195.14 L 1656 194.85 L 1664 194.53 L 1672 194.21 L 1680 193.88 L 1688 193.53 L 1696 193.18 L 1704 192.82 L 1712 192.45 L 1720 192.07 L 1728 191.68 L 1736 191.29 L 1744 190.89 L 1752 190.49 L 1760 190.08 L 1768 189.67 L 1776 189.25 L 1784 188.84 L 1792 188.42 L 1800 188.0 L 1808 187.58 L 1816 187.16 L 1824 186.75 L 1832 186.33 L 1840 185.92 L 1848 185.51 L 1856 185.11 L 1864 184.71 L 1872 184.32 L 1880 183.93 L 1888 183.55 L 1896 183.18 L 1904 182.82 L 1912 182.47 L 1920 182.12 L 1928 181.79 L 1936 181.47 L 1944 181.15 L 1952 180.86 L 1960 180.57 L 1968 180.29 L 1976 180.03 L 1984 179.79 L 1992 179.56 L 2000 179.34 L 2008 179.14 L 2016 178.95 L 2024 178.78 L 2032 178.63 L 2040 178.49 L 2048 178.37 L 2056 178.26 L 2064 178.18 L 2072 178.11 L 2080 178.05 L 2088 178.02 L 2096 178.0 L 2104 178.0 L 2112 178.02 L 2120 178.05 L 2128 178.11 L 2136 178.18 L 2144 178.26 L 2152 178.37 L 2160 178.49 L 2168 178.63 L 2176 178.78 L 2184 178.95 L 2192 179.14 L 2200 179.34 L 2208 179.56 L 2216 179.79 L 2224 180.03 L 2232 180.29 L 2240 180.57 L 2248 180.86 L 2256 181.15 L 2264 181.47 L 2272 181.79 L 2280 182.12 L 2288 182.47 L 2296 182.82 L 2304 183.18 L 2312 183.55 L 2320 183.93 L 2328 184.32 L 2336 184.71 L 2344 185.11 L 2352 185.51 L 2360 185.92 L 2368 186.33 L 2376 186.75 L 2384 187.16 L 2392 187.58 L 2400 188.0 L 2400 320 L 0 320 Z" fill="#5A726A"/>
  </g>
  <g>
    <animateTransform attributeName="transform" type="translate"
      from="0 0" to="-1200 0" dur="70s" repeatCount="indefinite" additive="sum"/>
    <path d="M 0 222.53 L 8 222.77 L 16 222.93 L 24 223.0 L 32 222.97 L 40 222.86 L 48 222.65 L 56 222.36 L 64 221.98 L 72 221.51 L 80 220.97 L 88 220.34 L 96 219.65 L 104 218.89 L 112 218.06 L 120 217.18 L 128 216.25 L 136 215.27 L 144 214.26 L 152 213.21 L 160 212.15 L 168 211.07 L 176 209.98 L 184 208.89 L 192 207.81 L 200 206.75 L 208 205.71 L 216 204.69 L 224 203.72 L 232 202.79 L 240 201.91 L 248 201.09 L 256 200.33 L 264 199.63 L 272 199.01 L 280 198.47 L 288 198.01 L 296 197.63 L 304 197.34 L 312 197.14 L 320 197.02 L 328 197.0 L 336 197.07 L 344 197.23 L 352 197.48 L 360 197.82 L 368 198.25 L 376 198.75 L 384 199.34 L 392 200.0 L 400 200.73 L 408 201.52 L 416 202.37 L 424 203.28 L 432 204.24 L 440 205.23 L 448 206.26 L 456 207.32 L 464 208.39 L 472 209.47 L 480 210.56 L 488 211.65 L 496 212.72 L 504 213.78 L 512 214.8 L 520 215.8 L 528 216.75 L 536 217.66 L 544 218.51 L 552 219.3 L 560 220.03 L 568 220.69 L 576 221.27 L 584 221.77 L 592 222.19 L 600 222.53 L 608 222.77 L 616 222.93 L 624 223.0 L 632 222.97 L 640 222.86 L 648 222.65 L 656 222.36 L 664 221.98 L 672 221.51 L 680 220.97 L 688 220.34 L 696 219.65 L 704 218.89 L 712 218.06 L 720 217.18 L 728 216.25 L 736 215.27 L 744 214.26 L 752 213.21 L 760 212.15 L 768 211.07 L 776 209.98 L 784 208.89 L 792 207.81 L 800 206.75 L 808 205.71 L 816 204.69 L 824 203.72 L 832 202.79 L 840 201.91 L 848 201.09 L 856 200.33 L 864 199.63 L 872 199.01 L 880 198.47 L 888 198.01 L 896 197.63 L 904 197.34 L 912 197.14 L 920 197.02 L 928 197.0 L 936 197.07 L 944 197.23 L 952 197.48 L 960 197.82 L 968 198.25 L 976 198.75 L 984 199.34 L 992 200.0 L 1000 200.73 L 1008 201.52 L 1016 202.37 L 1024 203.28 L 1032 204.24 L 1040 205.23 L 1048 206.26 L 1056 207.32 L 1064 208.39 L 1072 209.47 L 1080 210.56 L 1088 211.65 L 1096 212.72 L 1104 213.78 L 1112 214.8 L 1120 215.8 L 1128 216.75 L 1136 217.66 L 1144 218.51 L 1152 219.3 L 1160 220.03 L 1168 220.69 L 1176 221.27 L 1184 221.77 L 1192 222.19 L 1200 222.53 L 1208 222.77 L 1216 222.93 L 1224 223.0 L 1232 222.97 L 1240 222.86 L 1248 222.65 L 1256 222.36 L 1264 221.98 L 1272 221.51 L 1280 220.97 L 1288 220.34 L 1296 219.65 L 1304 218.89 L 1312 218.06 L 1320 217.18 L 1328 216.25 L 1336 215.27 L 1344 214.26 L 1352 213.21 L 1360 212.15 L 1368 211.07 L 1376 209.98 L 1384 208.89 L 1392 207.81 L 1400 206.75 L 1408 205.71 L 1416 204.69 L 1424 203.72 L 1432 202.79 L 1440 201.91 L 1448 201.09 L 1456 200.33 L 1464 199.63 L 1472 199.01 L 1480 198.47 L 1488 198.01 L 1496 197.63 L 1504 197.34 L 1512 197.14 L 1520 197.02 L 1528 197.0 L 1536 197.07 L 1544 197.23 L 1552 197.48 L 1560 197.82 L 1568 198.25 L 1576 198.75 L 1584 199.34 L 1592 200.0 L 1600 200.73 L 1608 201.52 L 1616 202.37 L 1624 203.28 L 1632 204.24 L 1640 205.23 L 1648 206.26 L 1656 207.32 L 1664 208.39 L 1672 209.47 L 1680 210.56 L 1688 211.65 L 1696 212.72 L 1704 213.78 L 1712 214.8 L 1720 215.8 L 1728 216.75 L 1736 217.66 L 1744 218.51 L 1752 219.3 L 1760 220.03 L 1768 220.69 L 1776 221.27 L 1784 221.77 L 1792 222.19 L 1800 222.53 L 1808 222.77 L 1816 222.93 L 1824 223.0 L 1832 222.97 L 1840 222.86 L 1848 222.65 L 1856 222.36 L 1864 221.98 L 1872 221.51 L 1880 220.97 L 1888 220.34 L 1896 219.65 L 1904 218.89 L 1912 218.06 L 1920 217.18 L 1928 216.25 L 1936 215.27 L 1944 214.26 L 1952 213.21 L 1960 212.15 L 1968 211.07 L 1976 209.98 L 1984 208.89 L 1992 207.81 L 2000 206.75 L 2008 205.71 L 2016 204.69 L 2024 203.72 L 2032 202.79 L 2040 201.91 L 2048 201.09 L 2056 200.33 L 2064 199.63 L 2072 199.01 L 2080 198.47 L 2088 198.01 L 2096 197.63 L 2104 197.34 L 2112 197.14 L 2120 197.02 L 2128 197.0 L 2136 197.07 L 2144 197.23 L 2152 197.48 L 2160 197.82 L 2168 198.25 L 2176 198.75 L 2184 199.34 L 2192 200.0 L 2200 200.73 L 2208 201.52 L 2216 202.37 L 2224 203.28 L 2232 204.24 L 2240 205.23 L 2248 206.26 L 2256 207.32 L 2264 208.39 L 2272 209.47 L 2280 210.56 L 2288 211.65 L 2296 212.72 L 2304 213.78 L 2312 214.8 L 2320 215.8 L 2328 216.75 L 2336 217.66 L 2344 218.51 L 2352 219.3 L 2360 220.03 L 2368 220.69 L 2376 221.27 L 2384 221.77 L 2392 222.19 L 2400 222.53 L 2400 320 L 0 320 Z" fill="#46615B"/>
  </g>
  <g>
    <animateTransform attributeName="transform" type="translate"
      from="0 0" to="-1200 0" dur="52s" repeatCount="indefinite" additive="sum"/>
    <path d="M 0 244.25 L 8 242.46 L 16 240.58 L 24 238.62 L 32 236.62 L 40 234.61 L 48 232.63 L 56 230.69 L 64 228.84 L 72 227.11 L 80 225.51 L 88 224.08 L 96 222.83 L 104 221.8 L 112 220.99 L 120 220.41 L 128 220.08 L 136 220.0 L 144 220.18 L 152 220.6 L 160 221.27 L 168 222.17 L 176 223.28 L 184 224.6 L 192 226.1 L 200 227.75 L 208 229.54 L 216 231.42 L 224 233.38 L 232 235.38 L 240 237.39 L 248 239.37 L 256 241.31 L 264 243.16 L 272 244.89 L 280 246.49 L 288 247.92 L 296 249.17 L 304 250.2 L 312 251.01 L 320 251.59 L 328 251.92 L 336 252.0 L 344 251.82 L 352 251.4 L 360 250.73 L 368 249.83 L 376 248.72 L 384 247.4 L 392 245.9 L 400 244.25 L 408 242.46 L 416 240.58 L 424 238.62 L 432 236.62 L 440 234.61 L 448 232.63 L 456 230.69 L 464 228.84 L 472 227.11 L 480 225.51 L 488 224.08 L 496 222.83 L 504 221.8 L 512 220.99 L 520 220.41 L 528 220.08 L 536 220.0 L 544 220.18 L 552 220.6 L 560 221.27 L 568 222.17 L 576 223.28 L 584 224.6 L 592 226.1 L 600 227.75 L 608 229.54 L 616 231.42 L 624 233.38 L 632 235.38 L 640 237.39 L 648 239.37 L 656 241.31 L 664 243.16 L 672 244.89 L 680 246.49 L 688 247.92 L 696 249.17 L 704 250.2 L 712 251.01 L 720 251.59 L 728 251.92 L 736 252.0 L 744 251.82 L 752 251.4 L 760 250.73 L 768 249.83 L 776 248.72 L 784 247.4 L 792 245.9 L 800 244.25 L 808 242.46 L 816 240.58 L 824 238.62 L 832 236.62 L 840 234.61 L 848 232.63 L 856 230.69 L 864 228.84 L 872 227.11 L 880 225.51 L 888 224.08 L 896 222.83 L 904 221.8 L 912 220.99 L 920 220.41 L 928 220.08 L 936 220.0 L 944 220.18 L 952 220.6 L 960 221.27 L 968 222.17 L 976 223.28 L 984 224.6 L 992 226.1 L 1000 227.75 L 1008 229.54 L 1016 231.42 L 1024 233.38 L 1032 235.38 L 1040 237.39 L 1048 239.37 L 1056 241.31 L 1064 243.16 L 1072 244.89 L 1080 246.49 L 1088 247.92 L 1096 249.17 L 1104 250.2 L 1112 251.01 L 1120 251.59 L 1128 251.92 L 1136 252.0 L 1144 251.82 L 1152 251.4 L 1160 250.73 L 1168 249.83 L 1176 248.72 L 1184 247.4 L 1192 245.9 L 1200 244.25 L 1208 242.46 L 1216 240.58 L 1224 238.62 L 1232 236.62 L 1240 234.61 L 1248 232.63 L 1256 230.69 L 1264 228.84 L 1272 227.11 L 1280 225.51 L 1288 224.08 L 1296 222.83 L 1304 221.8 L 1312 220.99 L 1320 220.41 L 1328 220.08 L 1336 220.0 L 1344 220.18 L 1352 220.6 L 1360 221.27 L 1368 222.17 L 1376 223.28 L 1384 224.6 L 1392 226.1 L 1400 227.75 L 1408 229.54 L 1416 231.42 L 1424 233.38 L 1432 235.38 L 1440 237.39 L 1448 239.37 L 1456 241.31 L 1464 243.16 L 1472 244.89 L 1480 246.49 L 1488 247.92 L 1496 249.17 L 1504 250.2 L 1512 251.01 L 1520 251.59 L 1528 251.92 L 1536 252.0 L 1544 251.82 L 1552 251.4 L 1560 250.73 L 1568 249.83 L 1576 248.72 L 1584 247.4 L 1592 245.9 L 1600 244.25 L 1608 242.46 L 1616 240.58 L 1624 238.62 L 1632 236.62 L 1640 234.61 L 1648 232.63 L 1656 230.69 L 1664 228.84 L 1672 227.11 L 1680 225.51 L 1688 224.08 L 1696 222.83 L 1704 221.8 L 1712 220.99 L 1720 220.41 L 1728 220.08 L 1736 220.0 L 1744 220.18 L 1752 220.6 L 1760 221.27 L 1768 222.17 L 1776 223.28 L 1784 224.6 L 1792 226.1 L 1800 227.75 L 1808 229.54 L 1816 231.42 L 1824 233.38 L 1832 235.38 L 1840 237.39 L 1848 239.37 L 1856 241.31 L 1864 243.16 L 1872 244.89 L 1880 246.49 L 1888 247.92 L 1896 249.17 L 1904 250.2 L 1912 251.01 L 1920 251.59 L 1928 251.92 L 1936 252.0 L 1944 251.82 L 1952 251.4 L 1960 250.73 L 1968 249.83 L 1976 248.72 L 1984 247.4 L 1992 245.9 L 2000 244.25 L 2008 242.46 L 2016 240.58 L 2024 238.62 L 2032 236.62 L 2040 234.61 L 2048 232.63 L 2056 230.69 L 2064 228.84 L 2072 227.11 L 2080 225.51 L 2088 224.08 L 2096 222.83 L 2104 221.8 L 2112 220.99 L 2120 220.41 L 2128 220.08 L 2136 220.0 L 2144 220.18 L 2152 220.6 L 2160 221.27 L 2168 222.17 L 2176 223.28 L 2184 224.6 L 2192 226.1 L 2200 227.75 L 2208 229.54 L 2216 231.42 L 2224 233.38 L 2232 235.38 L 2240 237.39 L 2248 239.37 L 2256 241.31 L 2264 243.16 L 2272 244.89 L 2280 246.49 L 2288 247.92 L 2296 249.17 L 2304 250.2 L 2312 251.01 L 2320 251.59 L 2328 251.92 L 2336 252.0 L 2344 251.82 L 2352 251.4 L 2360 250.73 L 2368 249.83 L 2376 248.72 L 2384 247.4 L 2392 245.9 L 2400 244.25 L 2400 320 L 0 320 Z" fill="#36504B"/>
  </g>
  <g>
    <animateTransform attributeName="transform" type="translate"
      from="0 0" to="-1200 0" dur="40s" repeatCount="indefinite" additive="sum"/>
    <path d="M 0 248.24 L 8 247.08 L 16 246.02 L 24 245.07 L 32 244.24 L 40 243.53 L 48 242.95 L 56 242.51 L 64 242.2 L 72 242.03 L 80 242.01 L 88 242.12 L 96 242.37 L 104 242.76 L 112 243.29 L 120 243.94 L 128 244.72 L 136 245.63 L 144 246.65 L 152 247.77 L 160 249.0 L 168 250.32 L 176 251.72 L 184 253.19 L 192 254.72 L 200 256.3 L 208 257.93 L 216 259.58 L 224 261.25 L 232 262.93 L 240 264.59 L 248 266.24 L 256 267.87 L 264 269.44 L 272 270.97 L 280 272.44 L 288 273.83 L 296 275.14 L 304 276.35 L 312 277.47 L 320 278.47 L 328 279.36 L 336 280.13 L 344 280.78 L 352 281.29 L 360 281.66 L 368 281.9 L 376 282.0 L 384 281.95 L 392 281.77 L 400 281.45 L 408 280.99 L 416 280.4 L 424 279.68 L 432 278.84 L 440 277.88 L 448 276.8 L 456 275.63 L 464 274.35 L 472 272.99 L 480 271.56 L 488 270.05 L 496 268.49 L 504 266.89 L 512 265.25 L 520 263.59 L 528 261.91 L 536 260.24 L 544 258.58 L 552 256.94 L 560 255.34 L 568 253.78 L 576 252.29 L 584 250.86 L 592 249.51 L 600 248.24 L 608 247.08 L 616 246.02 L 624 245.07 L 632 244.24 L 640 243.53 L 648 242.95 L 656 242.51 L 664 242.2 L 672 242.03 L 680 242.01 L 688 242.12 L 696 242.37 L 704 242.76 L 712 243.29 L 720 243.94 L 728 244.72 L 736 245.63 L 744 246.65 L 752 247.77 L 760 249.0 L 768 250.32 L 776 251.72 L 784 253.19 L 792 254.72 L 800 256.3 L 808 257.93 L 816 259.58 L 824 261.25 L 832 262.93 L 840 264.59 L 848 266.24 L 856 267.87 L 864 269.44 L 872 270.97 L 880 272.44 L 888 273.83 L 896 275.14 L 904 276.35 L 912 277.47 L 920 278.47 L 928 279.36 L 936 280.13 L 944 280.78 L 952 281.29 L 960 281.66 L 968 281.9 L 976 282.0 L 984 281.95 L 992 281.77 L 1000 281.45 L 1008 280.99 L 1016 280.4 L 1024 279.68 L 1032 278.84 L 1040 277.88 L 1048 276.8 L 1056 275.63 L 1064 274.35 L 1072 272.99 L 1080 271.56 L 1088 270.05 L 1096 268.49 L 1104 266.89 L 1112 265.25 L 1120 263.59 L 1128 261.91 L 1136 260.24 L 1144 258.58 L 1152 256.94 L 1160 255.34 L 1168 253.78 L 1176 252.29 L 1184 250.86 L 1192 249.51 L 1200 248.24 L 1208 247.08 L 1216 246.02 L 1224 245.07 L 1232 244.24 L 1240 243.53 L 1248 242.95 L 1256 242.51 L 1264 242.2 L 1272 242.03 L 1280 242.01 L 1288 242.12 L 1296 242.37 L 1304 242.76 L 1312 243.29 L 1320 243.94 L 1328 244.72 L 1336 245.63 L 1344 246.65 L 1352 247.77 L 1360 249.0 L 1368 250.32 L 1376 251.72 L 1384 253.19 L 1392 254.72 L 1400 256.3 L 1408 257.93 L 1416 259.58 L 1424 261.25 L 1432 262.93 L 1440 264.59 L 1448 266.24 L 1456 267.87 L 1464 269.44 L 1472 270.97 L 1480 272.44 L 1488 273.83 L 1496 275.14 L 1504 276.35 L 1512 277.47 L 1520 278.47 L 1528 279.36 L 1536 280.13 L 1544 280.78 L 1552 281.29 L 1560 281.66 L 1568 281.9 L 1576 282.0 L 1584 281.95 L 1592 281.77 L 1600 281.45 L 1608 280.99 L 1616 280.4 L 1624 279.68 L 1632 278.84 L 1640 277.88 L 1648 276.8 L 1656 275.63 L 1664 274.35 L 1672 272.99 L 1680 271.56 L 1688 270.05 L 1696 268.49 L 1704 266.89 L 1712 265.25 L 1720 263.59 L 1728 261.91 L 1736 260.24 L 1744 258.58 L 1752 256.94 L 1760 255.34 L 1768 253.78 L 1776 252.29 L 1784 250.86 L 1792 249.51 L 1800 248.24 L 1808 247.08 L 1816 246.02 L 1824 245.07 L 1832 244.24 L 1840 243.53 L 1848 242.95 L 1856 242.51 L 1864 242.2 L 1872 242.03 L 1880 242.01 L 1888 242.12 L 1896 242.37 L 1904 242.76 L 1912 243.29 L 1920 243.94 L 1928 244.72 L 1936 245.63 L 1944 246.65 L 1952 247.77 L 1960 249.0 L 1968 250.32 L 1976 251.72 L 1984 253.19 L 1992 254.72 L 2000 256.3 L 2008 257.93 L 2016 259.58 L 2024 261.25 L 2032 262.93 L 2040 264.59 L 2048 266.24 L 2056 267.87 L 2064 269.44 L 2072 270.97 L 2080 272.44 L 2088 273.83 L 2096 275.14 L 2104 276.35 L 2112 277.47 L 2120 278.47 L 2128 279.36 L 2136 280.13 L 2144 280.78 L 2152 281.29 L 2160 281.66 L 2168 281.9 L 2176 282.0 L 2184 281.95 L 2192 281.77 L 2200 281.45 L 2208 280.99 L 2216 280.4 L 2224 279.68 L 2232 278.84 L 2240 277.88 L 2248 276.8 L 2256 275.63 L 2264 274.35 L 2272 272.99 L 2280 271.56 L 2288 270.05 L 2296 268.49 L 2304 266.89 L 2312 265.25 L 2320 263.59 L 2328 261.91 L 2336 260.24 L 2344 258.58 L 2352 256.94 L 2360 255.34 L 2368 253.78 L 2376 252.29 L 2384 250.86 L 2392 249.51 L 2400 248.24 L 2400 320 L 0 320 Z" fill="#29403C"/>
  </g>
  <g>
    <animateTransform attributeName="transform" type="translate"
      from="0 0" to="-1200 0" dur="30s" repeatCount="indefinite" additive="sum"/>
    <path d="M 0 270.56 L 8 272.01 L 16 273.74 L 24 275.72 L 32 277.93 L 40 280.33 L 48 282.89 L 56 285.55 L 64 288.29 L 72 291.05 L 80 293.8 L 88 296.48 L 96 299.07 L 104 301.51 L 112 303.77 L 120 305.81 L 128 307.6 L 136 309.12 L 144 310.33 L 152 311.22 L 160 311.78 L 168 312.0 L 176 311.87 L 184 311.39 L 192 310.57 L 200 309.44 L 208 307.99 L 216 306.26 L 224 304.28 L 232 302.07 L 240 299.67 L 248 297.11 L 256 294.45 L 264 291.71 L 272 288.95 L 280 286.2 L 288 283.52 L 296 280.93 L 304 278.49 L 312 276.23 L 320 274.19 L 328 272.4 L 336 270.88 L 344 269.67 L 352 268.78 L 360 268.22 L 368 268.0 L 376 268.13 L 384 268.61 L 392 269.43 L 400 270.56 L 408 272.01 L 416 273.74 L 424 275.72 L 432 277.93 L 440 280.33 L 448 282.89 L 456 285.55 L 464 288.29 L 472 291.05 L 480 293.8 L 488 296.48 L 496 299.07 L 504 301.51 L 512 303.77 L 520 305.81 L 528 307.6 L 536 309.12 L 544 310.33 L 552 311.22 L 560 311.78 L 568 312.0 L 576 311.87 L 584 311.39 L 592 310.57 L 600 309.44 L 608 307.99 L 616 306.26 L 624 304.28 L 632 302.07 L 640 299.67 L 648 297.11 L 656 294.45 L 664 291.71 L 672 288.95 L 680 286.2 L 688 283.52 L 696 280.93 L 704 278.49 L 712 276.23 L 720 274.19 L 728 272.4 L 736 270.88 L 744 269.67 L 752 268.78 L 760 268.22 L 768 268.0 L 776 268.13 L 784 268.61 L 792 269.43 L 800 270.56 L 808 272.01 L 816 273.74 L 824 275.72 L 832 277.93 L 840 280.33 L 848 282.89 L 856 285.55 L 864 288.29 L 872 291.05 L 880 293.8 L 888 296.48 L 896 299.07 L 904 301.51 L 912 303.77 L 920 305.81 L 928 307.6 L 936 309.12 L 944 310.33 L 952 311.22 L 960 311.78 L 968 312.0 L 976 311.87 L 984 311.39 L 992 310.57 L 1000 309.44 L 1008 307.99 L 1016 306.26 L 1024 304.28 L 1032 302.07 L 1040 299.67 L 1048 297.11 L 1056 294.45 L 1064 291.71 L 1072 288.95 L 1080 286.2 L 1088 283.52 L 1096 280.93 L 1104 278.49 L 1112 276.23 L 1120 274.19 L 1128 272.4 L 1136 270.88 L 1144 269.67 L 1152 268.78 L 1160 268.22 L 1168 268.0 L 1176 268.13 L 1184 268.61 L 1192 269.43 L 1200 270.56 L 1208 272.01 L 1216 273.74 L 1224 275.72 L 1232 277.93 L 1240 280.33 L 1248 282.89 L 1256 285.55 L 1264 288.29 L 1272 291.05 L 1280 293.8 L 1288 296.48 L 1296 299.07 L 1304 301.51 L 1312 303.77 L 1320 305.81 L 1328 307.6 L 1336 309.12 L 1344 310.33 L 1352 311.22 L 1360 311.78 L 1368 312.0 L 1376 311.87 L 1384 311.39 L 1392 310.57 L 1400 309.44 L 1408 307.99 L 1416 306.26 L 1424 304.28 L 1432 302.07 L 1440 299.67 L 1448 297.11 L 1456 294.45 L 1464 291.71 L 1472 288.95 L 1480 286.2 L 1488 283.52 L 1496 280.93 L 1504 278.49 L 1512 276.23 L 1520 274.19 L 1528 272.4 L 1536 270.88 L 1544 269.67 L 1552 268.78 L 1560 268.22 L 1568 268.0 L 1576 268.13 L 1584 268.61 L 1592 269.43 L 1600 270.56 L 1608 272.01 L 1616 273.74 L 1624 275.72 L 1632 277.93 L 1640 280.33 L 1648 282.89 L 1656 285.55 L 1664 288.29 L 1672 291.05 L 1680 293.8 L 1688 296.48 L 1696 299.07 L 1704 301.51 L 1712 303.77 L 1720 305.81 L 1728 307.6 L 1736 309.12 L 1744 310.33 L 1752 311.22 L 1760 311.78 L 1768 312.0 L 1776 311.87 L 1784 311.39 L 1792 310.57 L 1800 309.44 L 1808 307.99 L 1816 306.26 L 1824 304.28 L 1832 302.07 L 1840 299.67 L 1848 297.11 L 1856 294.45 L 1864 291.71 L 1872 288.95 L 1880 286.2 L 1888 283.52 L 1896 280.93 L 1904 278.49 L 1912 276.23 L 1920 274.19 L 1928 272.4 L 1936 270.88 L 1944 269.67 L 1952 268.78 L 1960 268.22 L 1968 268.0 L 1976 268.13 L 1984 268.61 L 1992 269.43 L 2000 270.56 L 2008 272.01 L 2016 273.74 L 2024 275.72 L 2032 277.93 L 2040 280.33 L 2048 282.89 L 2056 285.55 L 2064 288.29 L 2072 291.05 L 2080 293.8 L 2088 296.48 L 2096 299.07 L 2104 301.51 L 2112 303.77 L 2120 305.81 L 2128 307.6 L 2136 309.12 L 2144 310.33 L 2152 311.22 L 2160 311.78 L 2168 312.0 L 2176 311.87 L 2184 311.39 L 2192 310.57 L 2200 309.44 L 2208 307.99 L 2216 306.26 L 2224 304.28 L 2232 302.07 L 2240 299.67 L 2248 297.11 L 2256 294.45 L 2264 291.71 L 2272 288.95 L 2280 286.2 L 2288 283.52 L 2296 280.93 L 2304 278.49 L 2312 276.23 L 2320 274.19 L 2328 272.4 L 2336 270.88 L 2344 269.67 L 2352 268.78 L 2360 268.22 L 2368 268.0 L 2376 268.13 L 2384 268.61 L 2392 269.43 L 2400 270.56 L 2400 320 L 0 320 Z" fill="#1E322F"/>
  </g>

    <!-- drifting dust -->
  <g opacity="0">
    <circle cx="180" cy="300" r="1.6" fill="#E8D6B6"/>
    <animateTransform attributeName="transform" type="translate"
      from="0 0" to="12 -96" dur="14s"
      begin="0s" repeatCount="indefinite"/>
    <animate attributeName="opacity" values="0;0.55;0.55;0"
      keyTimes="0;0.2;0.7;1" dur="14s" begin="0s" repeatCount="indefinite"/>
  </g>
  <g opacity="0">
    <circle cx="430" cy="285" r="1.2" fill="#E8D6B6"/>
    <animateTransform attributeName="transform" type="translate"
      from="0 0" to="12 -88" dur="17s"
      begin="3s" repeatCount="indefinite"/>
    <animate attributeName="opacity" values="0;0.55;0.55;0"
      keyTimes="0;0.2;0.7;1" dur="17s" begin="3s" repeatCount="indefinite"/>
  </g>
  <g opacity="0">
    <circle cx="700" cy="305" r="1.8" fill="#E8D6B6"/>
    <animateTransform attributeName="transform" type="translate"
      from="0 0" to="12 -100" dur="13s"
      begin="6s" repeatCount="indefinite"/>
    <animate attributeName="opacity" values="0;0.55;0.55;0"
      keyTimes="0;0.2;0.7;1" dur="13s" begin="6s" repeatCount="indefinite"/>
  </g>
  <g opacity="0">
    <circle cx="920" cy="290" r="1.0" fill="#E8D6B6"/>
    <animateTransform attributeName="transform" type="translate"
      from="0 0" to="12 -84" dur="19s"
      begin="2s" repeatCount="indefinite"/>
    <animate attributeName="opacity" values="0;0.55;0.55;0"
      keyTimes="0;0.2;0.7;1" dur="19s" begin="2s" repeatCount="indefinite"/>
  </g>
  <g opacity="0">
    <circle cx="1080" cy="300" r="1.4" fill="#E8D6B6"/>
    <animateTransform attributeName="transform" type="translate"
      from="0 0" to="12 -92" dur="15s"
      begin="8s" repeatCount="indefinite"/>
    <animate attributeName="opacity" values="0;0.55;0.55;0"
      keyTimes="0;0.2;0.7;1" dur="15s" begin="8s" repeatCount="indefinite"/>
  </g>
  <g opacity="0">
    <circle cx="560" cy="295" r="1.1" fill="#E8D6B6"/>
    <animateTransform attributeName="transform" type="translate"
      from="0 0" to="12 -88" dur="16s"
      begin="11s" repeatCount="indefinite"/>
    <animate attributeName="opacity" values="0;0.55;0.55;0"
      keyTimes="0;0.2;0.7;1" dur="16s" begin="11s" repeatCount="indefinite"/>
  </g>
  <g opacity="0">
    <circle cx="300" cy="300" r="1.0" fill="#E8D6B6"/>
    <animateTransform attributeName="transform" type="translate"
      from="0 0" to="12 -84" dur="18s"
      begin="5s" repeatCount="indefinite"/>
    <animate attributeName="opacity" values="0;0.55;0.55;0"
      keyTimes="0;0.2;0.7;1" dur="18s" begin="5s" repeatCount="indefinite"/>
  </g>
  </g>
</svg>
